<?xml version="1.0" encoding="UTF-8"?>
<!DOCTYPE svg PUBLIC "-//W3C//DTD SVG 1.1//EN" "http://www.w3.org/Graphics/SVG/1.1/DTD/svg11.dtd">
<svg xmlns="http://www.w3.org/2000/svg" version="1.1" width="300px" height="292px" style="shape-rendering:geometricPrecision; text-rendering:geometricPrecision; image-rendering:optimizeQuality; fill-rule:evenodd; clip-rule:evenodd" xmlns:xlink="http://www.w3.org/1999/xlink">
<g><path style="opacity:0.999" fill="#405f84" d="M 133.5,-0.5 C 134.5,-0.5 135.5,-0.5 136.5,-0.5C 137.609,0.28997 138.942,0.78997 140.5,1C 142.764,4.9619 143.097,9.12857 141.5,13.5C 142.773,16.5424 144.439,19.3757 146.5,22C 144.635,23.3014 142.635,23.6347 140.5,23C 138.968,20.9656 137.635,18.7989 136.5,16.5C 135.675,15.6143 134.675,15.281 133.5,15.5C 133.5,16.8333 133.5,18.1667 133.5,19.5C 133.5,20.8333 133.5,22.1667 133.5,23.5C 131.801,23.4729 130.467,22.8062 129.5,21.5C 128.185,16.2892 127.518,10.9559 127.5,5.5C 127.5,4.16667 127.5,2.83333 127.5,1.5C 128.791,1.73731 129.791,1.40397 130.5,0.5C 131.791,0.737305 132.791,0.403972 133.5,-0.5 Z M 136.5,4.5 C 136.833,5.16667 137.167,5.83333 137.5,6.5C 137.69,8.95888 136.69,10.6255 134.5,11.5C 132.952,11.1788 132.285,10.1788 132.5,8.5C 132.5,7.16667 132.5,5.83333 132.5,4.5C 133.833,4.5 135.167,4.5 136.5,4.5 Z"/></g>
<g><path style="opacity:1" fill="#3f5b7e" d="M 166.5,-0.5 C 167.833,-0.5 169.167,-0.5 170.5,-0.5C 172.802,7.67606 174.469,16.0094 175.5,24.5C 173.833,24.5 172.167,24.5 170.5,24.5C 171.134,21.084 169.8,19.084 166.5,18.5C 164.412,18.6198 163.078,19.6198 162.5,21.5C 161.292,22.2341 159.959,22.5674 158.5,22.5C 158.5,21.5 158.5,20.5 158.5,19.5C 160.972,12.7487 163.639,6.08204 166.5,-0.5 Z M 168.5,9.5 C 168.762,10.9778 168.429,12.3112 167.5,13.5C 166.702,13.0431 166.369,12.3764 166.5,11.5C 166.987,10.5266 167.487,9.52656 168,8.5C 168.399,8.72845 168.565,9.06178 168.5,9.5 Z"/></g>
<g><path style="opacity:0.282" fill="#bdcad6" d="M 130.5,0.5 C 129.791,1.40397 128.791,1.73731 127.5,1.5C 127.5,2.83333 127.5,4.16667 127.5,5.5C 126.549,4.08134 126.216,2.41467 126.5,0.5C 127.833,0.5 129.167,0.5 130.5,0.5 Z"/></g>
<g><path style="opacity:0.408" fill="#b1bdca" d="M 198.5,6.5 C 197.391,6.55688 196.391,6.89022 195.5,7.5C 196.053,5.44818 197.053,5.11484 198.5,6.5 Z"/></g>
<g><path style="opacity:1" fill="#527094" d="M 101.5,6.5 C 103.833,6.5 106.167,6.5 108.5,6.5C 108.33,7.82207 108.663,8.98873 109.5,10C 99.9604,12.2318 98.2938,17.0652 104.5,24.5C 107.656,25.8712 110.656,25.5379 113.5,23.5C 115.657,24.9664 115.99,26.7997 114.5,29C 105.669,33.166 99.5026,30.666 96,21.5C 94.4127,15.082 96.246,10.082 101.5,6.5 Z"/></g>
<g><path style="opacity:0.467" fill="#9cafc1" d="M 136.5,4.5 C 135.167,4.5 133.833,4.5 132.5,4.5C 132.5,5.83333 132.5,7.16667 132.5,8.5C 131.549,7.08134 131.216,5.41467 131.5,3.5C 133.415,3.21552 135.081,3.54885 136.5,4.5 Z"/></g>
<g><path style="opacity:1" fill="#455c7d" d="M 198.5,6.5 C 202.302,6.8737 205.636,8.20703 208.5,10.5C 206.439,14.0303 203.773,14.3637 200.5,11.5C 199.478,11.8555 198.811,12.5222 198.5,13.5C 197.115,14.9473 197.448,15.9473 199.5,16.5C 203.161,16.3501 204.161,17.8501 202.5,21C 200.934,21.765 199.601,21.5983 198.5,20.5C 197.053,19.1148 196.053,19.4482 195.5,21.5C 195.405,23.7857 194.738,25.7857 193.5,27.5C 192.609,28.1098 191.609,28.4431 190.5,28.5C 189.503,28.5299 188.836,28.0299 188.5,27C 190.568,20.2875 192.901,13.7875 195.5,7.5C 196.391,6.89022 197.391,6.55688 198.5,6.5 Z"/></g>
<g><path style="opacity:0.733" fill="#9dafc1" d="M 137.5,6.5 C 139.273,9.67601 138.273,11.3427 134.5,11.5C 136.69,10.6255 137.69,8.95888 137.5,6.5 Z"/></g>
<g><path style="opacity:0.306" fill="#bcc8d3" d="M 168.5,9.5 C 169.451,10.9187 169.784,12.5853 169.5,14.5C 168.167,14.5 166.833,14.5 165.5,14.5C 165.263,13.209 165.596,12.209 166.5,11.5C 166.369,12.3764 166.702,13.0431 167.5,13.5C 168.429,12.3112 168.762,10.9778 168.5,9.5 Z"/></g>
<g><path style="opacity:0.043" fill="#d8dee5" d="M 198.5,13.5 C 198.557,14.609 198.89,15.609 199.5,16.5C 197.448,15.9473 197.115,14.9473 198.5,13.5 Z"/></g>
<g><path style="opacity:1" fill="#495d7c" d="M 235.5,24.5 C 236.11,25.391 236.443,26.391 236.5,27.5C 236.217,28.2891 235.717,28.9558 235,29.5C 233.308,27.7554 231.475,27.4221 229.5,28.5C 226.57,33.3696 223.404,38.0363 220,42.5C 218.379,42.2753 217.212,41.442 216.5,40C 219.577,34.5149 222.91,29.1816 226.5,24C 224.919,23.2935 223.419,22.4601 222,21.5C 221.493,20.0039 221.993,18.8373 223.5,18C 228.056,19.0373 232.056,21.204 235.5,24.5 Z"/></g>
<g><path style="opacity:0.235" fill="#bec8d2" d="M 198.5,20.5 C 197.391,20.5569 196.391,20.8902 195.5,21.5C 196.053,19.4482 197.053,19.1148 198.5,20.5 Z"/></g>
<g><path style="opacity:0.341" fill="#bbc6d2" d="M 158.5,19.5 C 158.5,20.5 158.5,21.5 158.5,22.5C 159.959,22.5674 161.292,22.2341 162.5,21.5C 160.879,23.9755 158.879,24.1422 156.5,22C 157.066,21.0053 157.733,20.172 158.5,19.5 Z"/></g>
<g><path style="opacity:0.667" fill="#8299b1" d="M 133.5,19.5 C 134.451,20.9187 134.784,22.5853 134.5,24.5C 132.833,24.5 131.167,24.5 129.5,24.5C 129.5,23.5 129.5,22.5 129.5,21.5C 130.467,22.8062 131.801,23.4729 133.5,23.5C 133.5,22.1667 133.5,20.8333 133.5,19.5 Z"/></g>
<g><path style="opacity:0.031" fill="#cfd6dd" d="M 235.5,24.5 C 237.552,25.0527 237.885,26.0527 236.5,27.5C 236.443,26.391 236.11,25.391 235.5,24.5 Z"/></g>
<g><path style="opacity:0.192" fill="#b0bcc9" d="M 193.5,27.5 C 192.947,29.5518 191.947,29.8852 190.5,28.5C 191.609,28.4431 192.609,28.1098 193.5,27.5 Z"/></g>
<g><path style="opacity:1" fill="#4f7197" d="M 74.5,19.5 C 76.5638,19.7619 77.8971,20.9286 78.5,23C 75.9804,24.7632 73.6471,26.7632 71.5,29C 73.5,32.3333 75.5,32.3333 77.5,29C 79.8453,28.4562 81.1786,29.4562 81.5,32C 80.1418,33.6887 78.4751,35.022 76.5,36C 77.3041,37.7713 78.4708,39.2713 80,40.5C 82.3333,38.8333 84.6667,37.1667 87,35.5C 88.2362,36.3992 89.0696,37.5659 89.5,39C 85.9673,42.1936 82.134,45.0269 78,47.5C 73.3042,40.9699 68.8042,34.3032 64.5,27.5C 67.903,24.8141 71.2363,22.1474 74.5,19.5 Z"/></g>
<g><path style="opacity:1" fill="#455977" d="M 247.5,62.5 C 245.784,62.3713 244.117,62.038 242.5,61.5C 239.854,59.5211 237.521,57.1878 235.5,54.5C 240.833,48.5 246.5,42.8333 252.5,37.5C 255.985,40.484 259.318,43.6507 262.5,47C 261.333,48.1667 260.167,49.3333 259,50.5C 256.984,48.316 254.817,46.316 252.5,44.5C 251.354,45.1449 250.354,45.9783 249.5,47C 251.167,48.6667 252.833,50.3333 254.5,52C 253.333,53.1667 252.167,54.3333 251,55.5C 248.311,50.547 245.478,50.3803 242.5,55C 244.333,56.8333 246.167,58.6667 248,60.5C 248.692,61.4368 248.525,62.1034 247.5,62.5 Z"/></g>
<g><path style="opacity:1" fill="#52769d" d="M 48.5,59.5 C 47.7494,58.4265 46.7494,58.2599 45.5,59C 46.0442,59.7172 46.7109,60.2172 47.5,60.5C 50.3842,63.2393 53.0509,66.2393 55.5,69.5C 54.7884,71.0459 53.6217,72.0459 52,72.5C 46.1002,67.2698 40.9335,61.4365 36.5,55C 36.9304,53.5659 37.7638,52.3992 39,51.5C 42.125,52.7687 45.2917,53.602 48.5,54C 46.2979,51.1176 45.1312,47.9509 45,44.5C 45.8373,42.9926 47.0039,42.4926 48.5,43C 54.9482,46.9544 60.9482,51.4544 66.5,56.5C 65.8333,57.8333 64.8333,58.8333 63.5,59.5C 60.328,57.7481 57.328,55.7481 54.5,53.5C 54.1667,53.8333 53.8333,54.1667 53.5,54.5C 58.312,61.8227 56.6453,63.4894 48.5,59.5 Z"/></g>
<g><path style="opacity:0.188" fill="#ccd8e3" d="M 48.5,59.5 C 47.8333,59.5 47.5,59.8333 47.5,60.5C 46.7109,60.2172 46.0442,59.7172 45.5,59C 46.7494,58.2599 47.7494,58.4265 48.5,59.5 Z"/></g>
<g><path style="opacity:0.886" fill="#8e9cae" d="M 242.5,61.5 C 244.117,62.038 245.784,62.3713 247.5,62.5C 245.543,65.0591 243.877,64.7258 242.5,61.5 Z"/></g>
<g><path style="opacity:0.004" fill="#dadfe4" d="M 273.5,63.5 C 274.623,62.2426 275.289,62.5759 275.5,64.5C 274.833,64.1667 274.167,63.8333 273.5,63.5 Z"/></g>
<g><path style="opacity:1" fill="#445876" d="M 273.5,63.5 C 274.167,63.8333 274.833,64.1667 275.5,64.5C 283.489,74.2012 281.156,79.8679 268.5,81.5C 266.914,84.3405 265.08,87.0072 263,89.5C 261.779,88.2259 260.946,86.7259 260.5,85C 261.755,82.0777 263.422,79.411 265.5,77C 264.975,76.3076 264.308,75.8076 263.5,75.5C 261.5,76.8333 259.5,78.1667 257.5,79.5C 255.054,78.573 254.221,76.9063 255,74.5C 260.974,70.4327 267.141,66.7661 273.5,63.5 Z M 268.5,73.5 C 268.833,72.8333 269.167,72.1667 269.5,71.5C 270.721,70.9717 271.887,70.305 273,69.5C 276.576,72.4416 276.076,74.4416 271.5,75.5C 269.962,75.5466 268.962,74.8799 268.5,73.5 Z"/></g>
<g><path style="opacity:0.063" fill="#dfe3e8" d="M 269.5,71.5 C 269.167,72.1667 268.833,72.8333 268.5,73.5C 267.243,72.3774 267.576,71.7107 269.5,71.5 Z"/></g>
<g><path style="opacity:0.999" fill="#6082a7" d="M 22.5,73.5 C 30.2098,76.5224 37.5431,80.3557 44.5,85C 43.8448,86.4866 42.8448,87.6533 41.5,88.5C 34.1794,85.1746 27.1794,81.3412 20.5,77C 21.305,75.8873 21.9717,74.7206 22.5,73.5 Z"/></g>
<g><path style="opacity:0.533" fill="#889eb2" d="M 173.5,90.5 C 172.515,86.3656 172.182,82.0323 172.5,77.5C 158.833,77.5 145.167,77.5 131.5,77.5C 131.818,82.0323 131.485,86.3656 130.5,90.5C 130.5,85.8333 130.5,81.1667 130.5,76.5C 144.833,76.5 159.167,76.5 173.5,76.5C 173.5,81.1667 173.5,85.8333 173.5,90.5 Z"/></g>
<g><path style="opacity:0.114" fill="#bac7d4" d="M 122.5,77.5 C 109.5,77.5 96.5,77.5 83.5,77.5C 83.5,122.833 83.5,168.167 83.5,213.5C 92.1667,213.5 100.833,213.5 109.5,213.5C 124.167,213.5 138.833,213.5 153.5,213.5C 175.833,213.5 198.167,213.5 220.5,213.5C 174.67,214.499 128.67,214.832 82.5,214.5C 82.5,168.5 82.5,122.5 82.5,76.5C 96.0105,76.1711 109.344,76.5044 122.5,77.5 Z"/></g>
<g><path style="opacity:1" fill="#1d4d7a" d="M 122.5,77.5 C 122.263,81.722 122.596,85.8886 123.5,90C 125.637,93.103 127.97,93.2697 130.5,90.5C 131.441,95.0704 131.774,99.737 131.5,104.5C 119.5,104.5 107.5,104.5 95.5,104.5C 95.5,137.167 95.5,169.833 95.5,202.5C 100.167,202.5 104.833,202.5 109.5,202.5C 109.5,206.167 109.5,209.833 109.5,213.5C 100.833,213.5 92.1667,213.5 83.5,213.5C 83.5,168.167 83.5,122.833 83.5,77.5C 96.5,77.5 109.5,77.5 122.5,77.5 Z"/></g>
<g><path style="opacity:1" fill="#18416a" d="M 173.5,90.5 C 175.833,93.1667 178.167,93.1667 180.5,90.5C 179.617,95.1031 179.283,99.7697 179.5,104.5C 163.5,104.5 147.5,104.5 131.5,104.5C 131.774,99.737 131.441,95.0704 130.5,90.5C 131.485,86.3656 131.818,82.0323 131.5,77.5C 145.167,77.5 158.833,77.5 172.5,77.5C 172.182,82.0323 172.515,86.3656 173.5,90.5 Z"/></g>
<g><path style="opacity:0.129" fill="#b6c1cd" d="M 220.5,77.5 C 207.5,77.5 194.5,77.5 181.5,77.5C 181.818,82.0323 181.485,86.3656 180.5,90.5C 180.5,85.8333 180.5,81.1667 180.5,76.5C 194.01,76.1711 207.344,76.5044 220.5,77.5 Z"/></g>
<g><path style="opacity:1" fill="#12375c" d="M 220.5,77.5 C 220.5,122.833 220.5,168.167 220.5,213.5C 198.167,213.5 175.833,213.5 153.5,213.5C 153.5,209.833 153.5,206.167 153.5,202.5C 171.833,202.5 190.167,202.5 208.5,202.5C 208.5,169.833 208.5,137.167 208.5,104.5C 198.833,104.5 189.167,104.5 179.5,104.5C 179.283,99.7697 179.617,95.1031 180.5,90.5C 181.485,86.3656 181.818,82.0323 181.5,77.5C 194.5,77.5 207.5,77.5 220.5,77.5 Z"/></g>
<g><path style="opacity:0.137" fill="#cbd8e4" d="M 15.5,94.5 C 17.5518,95.0527 17.8852,96.0527 16.5,97.5C 16.4431,96.391 16.1098,95.391 15.5,94.5 Z"/></g>
<g><path style="opacity:1" fill="#3c5070" d="M 290.5,95.5 C 290.738,97.4044 291.738,98.7377 293.5,99.5C 293.5,99.8333 293.5,100.167 293.5,100.5C 293.815,103.211 293.148,105.544 291.5,107.5C 290.833,105.833 290.167,104.167 289.5,102.5C 288.878,101.373 288.045,100.373 287,99.5C 285.143,102.937 283.809,106.604 283,110.5C 279,114.5 275,114.5 271,110.5C 269.142,107.153 268.642,103.82 269.5,100.5C 270.833,100.5 272.167,100.5 273.5,100.5C 273.216,102.415 273.549,104.081 274.5,105.5C 275.664,108.578 277.164,108.912 279,106.5C 278.943,101.995 280.443,98.1613 283.5,95C 285.929,94.2967 288.262,94.4634 290.5,95.5 Z"/></g>
<g><path style="opacity:0.851" fill="#94a1b2" d="M 290.5,95.5 C 292.262,96.2623 293.262,97.5956 293.5,99.5C 291.738,98.7377 290.738,97.4044 290.5,95.5 Z"/></g>
<g><path style="opacity:0.153" fill="#b9c2cd" d="M 269.5,100.5 C 270.919,99.5489 272.585,99.2155 274.5,99.5C 274.5,101.5 274.5,103.5 274.5,105.5C 273.549,104.081 273.216,102.415 273.5,100.5C 272.167,100.5 270.833,100.5 269.5,100.5 Z"/></g>
<g><path style="opacity:1" fill="#597ea6" d="M 15.5,94.5 C 16.1098,95.391 16.4431,96.391 16.5,97.5C 16.281,98.675 16.6143,99.675 17.5,100.5C 22.796,102.432 28.1293,104.265 33.5,106C 34.2764,107.77 34.1097,109.603 33,111.5C 27.1569,109.608 21.3235,107.608 15.5,105.5C 14.0663,106.936 12.8996,108.602 12,110.5C 10.9887,109.663 9.82207,109.33 8.5,109.5C 9.76534,104.038 11.432,98.7042 13.5,93.5C 14.1835,93.8627 14.8501,94.1961 15.5,94.5 Z"/></g>
<g><path style="opacity:0.722" fill="#73859b" d="M 293.5,100.5 C 294.468,102.607 294.802,104.941 294.5,107.5C 293.5,107.5 292.5,107.5 291.5,107.5C 293.148,105.544 293.815,103.211 293.5,100.5 Z"/></g>
<g><path style="opacity:0.384" fill="#a0b0c1" d="M 131.5,104.5 C 147.5,104.5 163.5,104.5 179.5,104.5C 189.167,104.5 198.833,104.5 208.5,104.5C 208.5,137.167 208.5,169.833 208.5,202.5C 190.167,202.5 171.833,202.5 153.5,202.5C 138.833,202.5 124.167,202.5 109.5,202.5C 104.833,202.5 100.167,202.5 95.5,202.5C 95.5,169.833 95.5,137.167 95.5,104.5C 107.5,104.5 119.5,104.5 131.5,104.5 Z M 96.5,105.5 C 133.5,105.5 170.5,105.5 207.5,105.5C 207.5,137.5 207.5,169.5 207.5,201.5C 170.5,201.5 133.5,201.5 96.5,201.5C 96.5,169.5 96.5,137.5 96.5,105.5 Z"/></g>
<g><path style="opacity:0.482" fill="#a1adbc" d="M 289.5,102.5 C 290.167,104.167 290.833,105.833 291.5,107.5C 291.44,108.043 291.107,108.376 290.5,108.5C 289.534,106.604 289.201,104.604 289.5,102.5 Z"/></g>
<g><path style="opacity:0.612" fill="#849bb2" d="M 123.5,116.5 C 128.5,116.5 133.5,116.5 138.5,116.5C 138.5,121.833 138.5,127.167 138.5,132.5C 133.5,132.5 128.5,132.5 123.5,132.5C 123.5,127.167 123.5,121.833 123.5,116.5 Z"/></g>
<g><path style="opacity:1" fill="#194670" d="M 124.5,117.5 C 128.833,117.5 133.167,117.5 137.5,117.5C 137.5,122.167 137.5,126.833 137.5,131.5C 133.167,131.5 128.833,131.5 124.5,131.5C 124.5,126.833 124.5,122.167 124.5,117.5 Z"/></g>
<g><path style="opacity:0.553" fill="#869bb1" d="M 144.5,116.5 C 149.5,116.5 154.5,116.5 159.5,116.5C 159.5,121.833 159.5,127.167 159.5,132.5C 154.5,132.5 149.5,132.5 144.5,132.5C 144.5,127.167 144.5,121.833 144.5,116.5 Z"/></g>
<g><path style="opacity:1" fill="#17416a" d="M 145.5,117.5 C 149.833,117.5 154.167,117.5 158.5,117.5C 158.5,122.167 158.5,126.833 158.5,131.5C 154.167,131.5 149.833,131.5 145.5,131.5C 145.5,126.833 145.5,122.167 145.5,117.5 Z"/></g>
<g><path style="opacity:1" fill="#173e66" d="M 165.5,117.5 C 170.167,117.5 174.833,117.5 179.5,117.5C 179.5,122.167 179.5,126.833 179.5,131.5C 174.833,131.5 170.167,131.5 165.5,131.5C 165.5,126.833 165.5,122.167 165.5,117.5 Z"/></g>
<g><path style="opacity:0.447" fill="#9daebe" d="M 165.5,117.5 C 170.305,116.513 175.305,116.179 180.5,116.5C 180.5,121.833 180.5,127.167 180.5,132.5C 175.305,132.821 170.305,132.487 165.5,131.5C 170.167,131.5 174.833,131.5 179.5,131.5C 179.5,126.833 179.5,122.167 179.5,117.5C 174.833,117.5 170.167,117.5 165.5,117.5 Z"/></g>
<g><path style="opacity:1" fill="#143960" d="M 186.5,117.5 C 191.167,117.5 195.833,117.5 200.5,117.5C 200.5,122.167 200.5,126.833 200.5,131.5C 195.833,131.5 191.167,131.5 186.5,131.5C 186.5,126.833 186.5,122.167 186.5,117.5 Z"/></g>
<g><path style="opacity:0.337" fill="#a9b7c5" d="M 186.5,117.5 C 191.305,116.513 196.305,116.179 201.5,116.5C 201.5,121.833 201.5,127.167 201.5,132.5C 196.305,132.821 191.305,132.487 186.5,131.5C 191.167,131.5 195.833,131.5 200.5,131.5C 200.5,126.833 200.5,122.167 200.5,117.5C 195.833,117.5 191.167,117.5 186.5,117.5 Z"/></g>
<g><path style="opacity:0.788" fill="#7d96b0" d="M 102.5,137.5 C 107.5,137.5 112.5,137.5 117.5,137.5C 117.5,142.833 117.5,148.167 117.5,153.5C 112.5,153.5 107.5,153.5 102.5,153.5C 102.5,148.167 102.5,142.833 102.5,137.5 Z"/></g>
<g><path style="opacity:1" fill="#1b4a75" d="M 103.5,138.5 C 107.833,138.5 112.167,138.5 116.5,138.5C 116.5,143.167 116.5,147.833 116.5,152.5C 112.167,152.5 107.833,152.5 103.5,152.5C 103.5,147.833 103.5,143.167 103.5,138.5 Z"/></g>
<g><path style="opacity:0.671" fill="#8299b0" d="M 123.5,137.5 C 128.5,137.5 133.5,137.5 138.5,137.5C 138.5,142.833 138.5,148.167 138.5,153.5C 133.5,153.5 128.5,153.5 123.5,153.5C 123.5,148.167 123.5,142.833 123.5,137.5 Z"/></g>
<g><path style="opacity:1" fill="#194670" d="M 124.5,138.5 C 128.833,138.5 133.167,138.5 137.5,138.5C 137.5,143.167 137.5,147.833 137.5,152.5C 133.167,152.5 128.833,152.5 124.5,152.5C 124.5,147.833 124.5,143.167 124.5,138.5 Z"/></g>
<g><path style="opacity:0.722" fill="#7e94ac" d="M 144.5,137.5 C 149.5,137.5 154.5,137.5 159.5,137.5C 159.5,142.833 159.5,148.167 159.5,153.5C 154.5,153.5 149.5,153.5 144.5,153.5C 144.5,148.167 144.5,142.833 144.5,137.5 Z"/></g>
<g><path style="opacity:1" fill="#17416a" d="M 145.5,138.5 C 149.833,138.5 154.167,138.5 158.5,138.5C 158.5,143.167 158.5,147.833 158.5,152.5C 154.167,152.5 149.833,152.5 145.5,152.5C 145.5,147.833 145.5,143.167 145.5,138.5 Z"/></g>
<g><path style="opacity:1" fill="#194067" d="M 179.5,137.5 C 179.5,142.5 179.5,147.5 179.5,152.5C 174.833,152.5 170.167,152.5 165.5,152.5C 165.5,147.5 165.5,142.5 165.5,137.5C 170.167,137.5 174.833,137.5 179.5,137.5 Z"/></g>
<g><path style="opacity:1" fill="#173c62" d="M 200.5,137.5 C 200.5,142.5 200.5,147.5 200.5,152.5C 195.833,152.5 191.167,152.5 186.5,152.5C 186.5,147.5 186.5,142.5 186.5,137.5C 191.167,137.5 195.833,137.5 200.5,137.5 Z"/></g>
<g><path style="opacity:1" fill="#294163" d="M 293.5,153.5 C 292.5,153.833 291.833,154.5 291.5,155.5C 291.389,156.117 291.056,156.617 290.5,157C 287.5,157.667 284.5,157.667 281.5,157C 280.944,156.617 280.611,156.117 280.5,155.5C 280.167,154.5 279.5,153.833 278.5,153.5C 277.06,152.054 276.393,150.221 276.5,148C 276.514,146.615 276.848,145.449 277.5,144.5C 278.906,144.027 279.573,143.027 279.5,141.5C 283.587,137.729 287.92,137.562 292.5,141C 296.008,145.017 296.341,149.183 293.5,153.5 Z"/></g>
<g><path style="opacity:1" fill="#3f6c99" d="M 16.5,138.5 C 27.1018,139.577 30.2685,144.91 26,154.5C 21.8631,157.829 17.3631,158.329 12.5,156C 6.97951,148.583 8.31284,142.749 16.5,138.5 Z"/></g>
<g><path style="opacity:0.467" fill="#9ba8b7" d="M 279.5,141.5 C 279.573,143.027 278.906,144.027 277.5,144.5C 277.427,142.973 278.094,141.973 279.5,141.5 Z"/></g>
<g><path style="opacity:0.098" fill="#cdd6de" d="M 179.5,137.5 C 180.488,142.64 180.821,147.974 180.5,153.5C 175.305,153.821 170.305,153.487 165.5,152.5C 170.167,152.5 174.833,152.5 179.5,152.5C 179.5,147.5 179.5,142.5 179.5,137.5 Z"/></g>
<g><path style="opacity:0.097" fill="#d6dce3" d="M 200.5,137.5 C 201.488,142.64 201.821,147.974 201.5,153.5C 196.305,153.821 191.305,153.487 186.5,152.5C 191.167,152.5 195.833,152.5 200.5,152.5C 200.5,147.5 200.5,142.5 200.5,137.5 Z"/></g>
<g><path style="opacity:0.008" fill="#bbc3cf" d="M 278.5,153.5 C 279.5,153.833 280.167,154.5 280.5,155.5C 279.167,155.5 278.5,154.833 278.5,153.5 Z"/></g>
<g><path style="opacity:0.004" fill="#c1c9d2" d="M 293.5,153.5 C 293.5,154.833 292.833,155.5 291.5,155.5C 291.833,154.5 292.5,153.833 293.5,153.5 Z"/></g>
<g><path style="opacity:1" fill="#183c62" d="M 186.5,158.5 C 191.167,158.5 195.833,158.5 200.5,158.5C 200.5,163.5 200.5,168.5 200.5,173.5C 195.833,173.5 191.167,173.5 186.5,173.5C 186.5,168.5 186.5,163.5 186.5,158.5 Z"/></g>
<g><path style="opacity:0.337" fill="#c5ced8" d="M 186.5,158.5 C 191.305,157.513 196.305,157.179 201.5,157.5C 201.821,163.026 201.488,168.36 200.5,173.5C 200.5,168.5 200.5,163.5 200.5,158.5C 195.833,158.5 191.167,158.5 186.5,158.5 Z"/></g>
<g><path style="opacity:0.769" fill="#7e97b0" d="M 102.5,157.5 C 107.5,157.5 112.5,157.5 117.5,157.5C 117.5,162.833 117.5,168.167 117.5,173.5C 112.5,173.5 107.5,173.5 102.5,173.5C 102.5,168.167 102.5,162.833 102.5,157.5 Z"/></g>
<g><path style="opacity:1" fill="#1b4a75" d="M 103.5,158.5 C 107.833,158.5 112.167,158.5 116.5,158.5C 116.5,163.167 116.5,167.833 116.5,172.5C 112.167,172.5 107.833,172.5 103.5,172.5C 103.5,167.833 103.5,163.167 103.5,158.5 Z"/></g>
<g><path style="opacity:0.769" fill="#7c94ad" d="M 123.5,157.5 C 128.5,157.5 133.5,157.5 138.5,157.5C 138.5,162.833 138.5,168.167 138.5,173.5C 133.5,173.5 128.5,173.5 123.5,173.5C 123.5,168.167 123.5,162.833 123.5,157.5 Z"/></g>
<g><path style="opacity:1" fill="#194670" d="M 124.5,158.5 C 128.833,158.5 133.167,158.5 137.5,158.5C 137.5,163.167 137.5,167.833 137.5,172.5C 133.167,172.5 128.833,172.5 124.5,172.5C 124.5,167.833 124.5,163.167 124.5,158.5 Z"/></g>
<g><path style="opacity:0.769" fill="#7b92aa" d="M 144.5,157.5 C 149.5,157.5 154.5,157.5 159.5,157.5C 159.5,162.833 159.5,168.167 159.5,173.5C 154.5,173.5 149.5,173.5 144.5,173.5C 144.5,168.167 144.5,162.833 144.5,157.5 Z"/></g>
<g><path style="opacity:1" fill="#17416a" d="M 145.5,158.5 C 149.833,158.5 154.167,158.5 158.5,158.5C 158.5,163.167 158.5,167.833 158.5,172.5C 154.167,172.5 149.833,172.5 145.5,172.5C 145.5,167.833 145.5,163.167 145.5,158.5 Z"/></g>
<g><path style="opacity:0.769" fill="#798fa6" d="M 165.5,157.5 C 170.5,157.5 175.5,157.5 180.5,157.5C 180.5,162.833 180.5,168.167 180.5,173.5C 175.5,173.5 170.5,173.5 165.5,173.5C 165.5,168.167 165.5,162.833 165.5,157.5 Z"/></g>
<g><path style="opacity:1" fill="#153d65" d="M 166.5,158.5 C 170.833,158.5 175.167,158.5 179.5,158.5C 179.5,163.167 179.5,167.833 179.5,172.5C 175.167,172.5 170.833,172.5 166.5,172.5C 166.5,167.833 166.5,163.167 166.5,158.5 Z"/></g>
<g><path style="opacity:1" fill="#5278a0" d="M 37.5,191.5 C 37.38,190.414 36.7133,189.747 35.5,189.5C 34.5836,189.543 33.9169,189.876 33.5,190.5C 28.8129,192.23 23.9795,193.897 19,195.5C 18.2352,195.43 17.7352,195.097 17.5,194.5C 17.4326,193.041 17.7659,191.708 18.5,190.5C 23.6964,188.435 29.0298,186.768 34.5,185.5C 34.3016,183.425 34.1349,181.425 34,179.5C 35.3561,178.62 36.8561,178.286 38.5,178.5C 40.0394,183.784 41.3728,189.118 42.5,194.5C 40.8333,194.5 39.1667,194.5 37.5,194.5C 37.5,193.5 37.5,192.5 37.5,191.5 Z"/></g>
<g><path style="opacity:0.498" fill="#99afc2" d="M 117.5,179.5 C 112.833,179.5 108.167,179.5 103.5,179.5C 103.5,184.167 103.5,188.833 103.5,193.5C 108.167,193.5 112.833,193.5 117.5,193.5C 112.695,194.487 107.695,194.821 102.5,194.5C 102.5,189.167 102.5,183.833 102.5,178.5C 107.695,178.179 112.695,178.513 117.5,179.5 Z"/></g>
<g><path style="opacity:1" fill="#204d78" d="M 117.5,179.5 C 117.5,184.167 117.5,188.833 117.5,193.5C 112.833,193.5 108.167,193.5 103.5,193.5C 103.5,188.833 103.5,184.167 103.5,179.5C 108.167,179.5 112.833,179.5 117.5,179.5 Z"/></g>
<g><path style="opacity:0.612" fill="#849bb2" d="M 123.5,178.5 C 128.5,178.5 133.5,178.5 138.5,178.5C 138.5,183.833 138.5,189.167 138.5,194.5C 133.5,194.5 128.5,194.5 123.5,194.5C 123.5,189.167 123.5,183.833 123.5,178.5 Z"/></g>
<g><path style="opacity:1" fill="#194670" d="M 124.5,179.5 C 128.833,179.5 133.167,179.5 137.5,179.5C 137.5,184.167 137.5,188.833 137.5,193.5C 133.167,193.5 128.833,193.5 124.5,193.5C 124.5,188.833 124.5,184.167 124.5,179.5 Z"/></g>
<g><path style="opacity:0.553" fill="#869bb1" d="M 144.5,178.5 C 149.5,178.5 154.5,178.5 159.5,178.5C 159.5,183.833 159.5,189.167 159.5,194.5C 154.5,194.5 149.5,194.5 144.5,194.5C 144.5,189.167 144.5,183.833 144.5,178.5 Z"/></g>
<g><path style="opacity:1" fill="#17416a" d="M 145.5,179.5 C 149.833,179.5 154.167,179.5 158.5,179.5C 158.5,184.167 158.5,188.833 158.5,193.5C 154.167,193.5 149.833,193.5 145.5,193.5C 145.5,188.833 145.5,184.167 145.5,179.5 Z"/></g>
<g><path style="opacity:1" fill="#405473" d="M 270.5,191.5 C 272.749,190.92 274.415,189.587 275.5,187.5C 275.5,186.833 275.833,186.5 276.5,186.5C 279.096,185.735 281.763,185.401 284.5,185.5C 286.815,186.783 288.148,188.783 288.5,191.5C 287.846,194.963 286.513,198.13 284.5,201C 282.165,201.507 280.165,200.84 278.5,199C 280.07,197.603 281.404,196.103 282.5,194.5C 283.139,193.903 283.472,193.07 283.5,192C 283.316,190.624 282.649,189.791 281.5,189.5C 278.379,191.448 275.379,193.615 272.5,196C 266.753,197.266 263.419,194.933 262.5,189C 262.98,185.186 264.814,182.353 268,180.5C 269.621,180.725 270.788,181.558 271.5,183C 270.277,184.72 269.277,186.553 268.5,188.5C 268.453,190.038 269.12,191.038 270.5,191.5 Z"/></g>
<g><path style="opacity:0.655" fill="#919fb0" d="M 284.5,185.5 C 281.763,185.401 279.096,185.735 276.5,186.5C 277.492,184.974 278.992,184.307 281,184.5C 282.385,184.514 283.551,184.848 284.5,185.5 Z"/></g>
<g><path style="opacity:0.667" fill="#8b9aac" d="M 275.5,187.5 C 274.415,189.587 272.749,190.92 270.5,191.5C 271.585,189.413 273.251,188.08 275.5,187.5 Z"/></g>
<g><path style="opacity:0.216" fill="#d7e1ea" d="M 33.5,190.5 C 33.9169,189.876 34.5836,189.543 35.5,189.5C 36.7133,189.747 37.38,190.414 37.5,191.5C 36.2921,190.766 34.9587,190.433 33.5,190.5 Z"/></g>
<g><path style="opacity:0.094" fill="#b0bac6" d="M 281.5,189.5 C 282.649,189.791 283.316,190.624 283.5,192C 283.472,193.07 283.139,193.903 282.5,194.5C 282.634,192.708 282.301,191.042 281.5,189.5 Z"/></g>
<g><path style="opacity:0.004" fill="#cedae6" d="M 18.5,190.5 C 17.7659,191.708 17.4326,193.041 17.5,194.5C 16.8761,194.083 16.5427,193.416 16.5,192.5C 16.7472,191.287 17.4138,190.62 18.5,190.5 Z"/></g>
<g><path style="opacity:1" fill="#19456f" d="M 109.5,202.5 C 124.167,202.5 138.833,202.5 153.5,202.5C 153.5,206.167 153.5,209.833 153.5,213.5C 138.833,213.5 124.167,213.5 109.5,213.5C 109.5,209.833 109.5,206.167 109.5,202.5 Z"/></g>
<g><path style="opacity:1" fill="#425675" d="M 269.5,229.5 C 268.167,229.167 266.833,228.833 265.5,228.5C 260.071,225.587 254.737,222.42 249.5,219C 248.978,218.439 248.645,217.772 248.5,217C 249.91,214.182 251.577,211.515 253.5,209C 260.232,205.739 264.899,207.572 267.5,214.5C 271.051,214.952 274.385,215.952 277.5,217.5C 276.974,219.23 275.974,220.564 274.5,221.5C 262.934,218.218 261.934,220.051 271.5,227C 270.934,227.995 270.267,228.828 269.5,229.5 Z M 256.5,212.5 C 261.276,213.023 262.443,215.356 260,219.5C 258.846,218.257 257.512,217.257 256,216.5C 255.805,215.181 255.972,213.847 256.5,212.5 Z"/></g>
<g><path style="opacity:1" fill="#5c7ea5" d="M 46.5,204.5 C 49.3614,205.237 50.3614,206.904 49.5,209.5C 42.8333,213.167 36.1667,216.833 29.5,220.5C 27.3411,219.215 26.6745,217.548 27.5,215.5C 34.0598,212.059 40.3931,208.392 46.5,204.5 Z"/></g>
<g><path style="opacity:1" fill="#55779d" d="M 57.5,221.5 C 59.9477,221.085 61.2811,222.085 61.5,224.5C 60.6414,227.051 59.6414,229.551 58.5,232C 58.8333,232.5 59.1667,233 59.5,233.5C 62.1667,232.5 64.8333,231.5 67.5,230.5C 68.8448,231.347 69.8448,232.513 70.5,234C 65,240.167 59.5,246.333 54,252.5C 52.647,251.315 51.4803,249.981 50.5,248.5C 52.8333,245.833 55.1667,243.167 57.5,240.5C 54.9015,239.969 52.2348,239.802 49.5,240C 50.8172,237.562 51.6505,235.062 52,232.5C 48.8161,234.758 45.4828,236.758 42,238.5C 40.7263,237.465 39.5596,236.298 38.5,235C 45.0138,230.637 51.3471,226.137 57.5,221.5 Z"/></g>
<g><path style="opacity:1" fill="#475a78" d="M 241.5,239.5 C 243.411,238.925 245.078,237.925 246.5,236.5C 247.695,236.866 248.361,237.699 248.5,239C 247.708,240.96 246.375,242.46 244.5,243.5C 245.48,244.981 246.647,246.315 248,247.5C 250.016,245.316 252.183,243.316 254.5,241.5C 256.046,242.212 257.046,243.378 257.5,245C 254.566,247.934 251.566,250.934 248.5,254C 241.859,249.54 235.859,244.04 230.5,237.5C 233.5,233.833 236.833,230.5 240.5,227.5C 241.833,228.167 242.833,229.167 243.5,230.5C 241.684,232.817 239.684,234.984 237.5,237C 238.471,238.481 239.804,239.315 241.5,239.5 Z"/></g>
<g><path style="opacity:0.412" fill="#a6b2c0" d="M 265.5,228.5 C 266.833,228.833 268.167,229.167 269.5,229.5C 267.872,230.853 266.538,230.519 265.5,228.5 Z"/></g>
<g><path style="opacity:0.761" fill="#8f9daf" d="M 246.5,236.5 C 245.078,237.925 243.411,238.925 241.5,239.5C 242.648,236.913 244.315,235.913 246.5,236.5 Z"/></g>
<g><path style="opacity:1" fill="#475c7b" d="M 226.5,264.5 C 226.427,266.027 227.094,267.027 228.5,267.5C 228.167,268.167 227.833,268.833 227.5,269.5C 226.5,269.5 225.5,269.5 224.5,269.5C 221.022,264.566 217.522,259.566 214,254.5C 211.011,258.7 208.844,258.367 207.5,253.5C 211.742,250.128 216.242,247.128 221,244.5C 224.318,247.52 223.818,250.02 219.5,252C 222.238,255.979 224.571,260.145 226.5,264.5 Z"/></g>
<g><path style="opacity:1" fill="#517298" d="M 81.5,243.5 C 85.7542,245.749 89.7542,248.415 93.5,251.5C 92.9169,253.002 92.0836,254.335 91,255.5C 88.6667,253.833 86.3333,252.167 84,250.5C 80.7008,253.631 81.3674,255.964 86,257.5C 86.3087,259.391 85.4753,260.725 83.5,261.5C 81.6675,260.752 80.0009,259.752 78.5,258.5C 76.5692,259.694 75.7359,261.361 76,263.5C 78.3333,265.006 80.5,266.673 82.5,268.5C 81.8333,269.833 80.8333,270.833 79.5,271.5C 75.2637,269.555 71.5971,266.888 68.5,263.5C 72.8438,256.805 77.1771,250.138 81.5,243.5 Z"/></g>
<g><path style="opacity:0.999" fill="#527094" d="M 108.5,258.5 C 112.643,258.652 115.976,260.319 118.5,263.5C 117.917,265.002 117.084,266.335 116,267.5C 112.254,263.607 108.588,263.607 105,267.5C 101.363,274.872 103.53,278.872 111.5,279.5C 111.8,282.244 110.633,283.911 108,284.5C 101.601,283.601 98.1012,279.934 97.5,273.5C 97.8469,265.849 101.514,260.849 108.5,258.5 Z"/></g>
<g><path style="opacity:1" fill="#4a6181" d="M 199.5,267.5 C 199.634,269.292 199.301,270.958 198.5,272.5C 197.357,272.908 196.357,273.575 195.5,274.5C 196.5,277.167 197.5,279.833 198.5,282.5C 197.345,283.95 195.845,284.95 194,285.5C 191.162,277.65 188.328,269.817 185.5,262C 189.616,260.795 193.616,259.295 197.5,257.5C 198.974,258.436 199.974,259.77 200.5,261.5C 197.721,262.646 195.054,263.979 192.5,265.5C 192.865,266.902 193.699,267.902 195,268.5C 196.44,267.852 197.94,267.519 199.5,267.5 Z"/></g>
<g><path style="opacity:1" fill="#3b5b80" d="M 142.5,279.5 C 140.448,280.053 140.115,281.053 141.5,282.5C 141.5,282.833 141.5,283.167 141.5,283.5C 141.433,285.401 141.767,287.234 142.5,289C 142.164,290.03 141.497,290.53 140.5,290.5C 137.865,288.661 136.532,285.994 136.5,282.5C 135.817,280.824 134.483,280.157 132.5,280.5C 132.5,281.833 132.5,283.167 132.5,284.5C 132.5,285.167 132.5,285.833 132.5,286.5C 131.533,287.806 130.199,288.473 128.5,288.5C 128.5,286.5 128.5,284.5 128.5,282.5C 128.389,276.273 129.389,270.273 131.5,264.5C 134.109,265.23 136.776,265.73 139.5,266C 143.496,266.836 145.496,269.336 145.5,273.5C 145.241,275.987 144.241,277.987 142.5,279.5 Z M 138.5,270.5 C 139.301,272.042 139.634,273.708 139.5,275.5C 137.958,276.301 136.292,276.634 134.5,276.5C 134.5,274.833 134.5,273.167 134.5,271.5C 134.369,270.761 134.536,270.094 135,269.5C 136.011,270.337 137.178,270.67 138.5,270.5 Z"/></g>
<g><path style="opacity:0.408" fill="#bec9d4" d="M 163.5,266.5 C 164.097,265.861 164.93,265.528 166,265.5C 167.376,265.684 168.209,266.351 168.5,267.5C 166.958,266.699 165.292,266.366 163.5,266.5 Z"/></g>
<g><path style="opacity:1" fill="#3a577b" d="M 163.5,266.5 C 165.292,266.366 166.958,266.699 168.5,267.5C 172.057,274.612 175.057,281.945 177.5,289.5C 173.518,290.422 171.184,288.922 170.5,285C 168.866,284.506 167.199,284.34 165.5,284.5C 163.824,285.183 163.157,286.517 163.5,288.5C 163.5,289.833 162.833,290.5 161.5,290.5C 160.167,290.5 159.5,289.833 159.5,288.5C 160.204,280.929 161.538,273.596 163.5,266.5 Z M 165.5,276.5 C 166.167,276.5 166.833,276.5 167.5,276.5C 167.328,277.492 167.662,278.158 168.5,278.5C 167.833,279.167 167.167,279.833 166.5,280.5C 165.566,279.432 165.232,278.099 165.5,276.5 Z"/></g>
<g><path style="opacity:0.506" fill="#919fb1" d="M 226.5,264.5 C 227.906,264.973 228.573,265.973 228.5,267.5C 227.094,267.027 226.427,266.027 226.5,264.5 Z"/></g>
<g><path style="opacity:0.012" fill="#dae0e5" d="M 228.5,267.5 C 229.757,268.623 229.424,269.289 227.5,269.5C 227.833,268.833 228.167,268.167 228.5,267.5 Z"/></g>
<g><path style="opacity:0.702" fill="#9ca9b9" d="M 224.5,269.5 C 225.5,269.5 226.5,269.5 227.5,269.5C 225.957,271.557 224.957,271.557 224.5,269.5 Z"/></g>
<g><path style="opacity:0.961" fill="#8797ab" d="M 199.5,267.5 C 202.476,269.872 202.143,271.539 198.5,272.5C 199.301,270.958 199.634,269.292 199.5,267.5 Z"/></g>
<g><path style="opacity:0.192" fill="#b0becd" d="M 138.5,270.5 C 139.649,270.791 140.316,271.624 140.5,273C 140.472,274.07 140.139,274.903 139.5,275.5C 139.634,273.708 139.301,272.042 138.5,270.5 Z"/></g>
<g><path style="opacity:0.188" fill="#b9c6d3" d="M 134.5,271.5 C 134.5,273.167 134.5,274.833 134.5,276.5C 136.292,276.634 137.958,276.301 139.5,275.5C 138.082,277.308 136.082,277.975 133.5,277.5C 133.205,275.265 133.539,273.265 134.5,271.5 Z"/></g>
<g><path style="opacity:0.271" fill="#b9c5d1" d="M 167.5,276.5 C 166.833,276.5 166.167,276.5 165.5,276.5C 165.719,271.371 166.386,271.371 167.5,276.5 Z"/></g>
<g><path style="opacity:0.478" fill="#a2b2c2" d="M 168.5,278.5 C 169.043,278.56 169.376,278.893 169.5,279.5C 168.675,280.386 167.675,280.719 166.5,280.5C 167.167,279.833 167.833,279.167 168.5,278.5 Z"/></g>
<g><path style="opacity:0.09" fill="#c7d1dc" d="M 142.5,279.5 C 141.89,280.391 141.557,281.391 141.5,282.5C 140.115,281.053 140.448,280.053 142.5,279.5 Z"/></g>
<g><path style="opacity:0.263" fill="#c3ced9" d="M 136.5,282.5 C 135.85,282.196 135.183,281.863 134.5,281.5C 133.824,282.602 133.158,283.602 132.5,284.5C 132.5,283.167 132.5,281.833 132.5,280.5C 134.483,280.157 135.817,280.824 136.5,282.5 Z"/></g>
<g><path style="opacity:0.427" fill="#b7c3d0" d="M 165.5,284.5 C 165.011,285.995 164.345,287.329 163.5,288.5C 163.157,286.517 163.824,285.183 165.5,284.5 Z"/></g>
<g><path style="opacity:0.91" fill="#9cacbf" d="M 141.5,283.5 C 143.04,285.838 143.706,288.505 143.5,291.5C 142.5,291.5 141.5,291.5 140.5,291.5C 140.5,291.167 140.5,290.833 140.5,290.5C 141.497,290.53 142.164,290.03 142.5,289C 141.767,287.234 141.433,285.401 141.5,283.5 Z"/></g>
<g><path style="opacity:0.459" fill="#92a7bb" d="M 128.5,282.5 C 128.5,284.5 128.5,286.5 128.5,288.5C 130.199,288.473 131.533,287.806 132.5,286.5C 132.5,287.5 132.5,288.5 132.5,289.5C 130.833,289.5 129.167,289.5 127.5,289.5C 127.198,286.941 127.532,284.607 128.5,282.5 Z"/></g>
<g><path style="opacity:0.009" fill="#eff2f5" d="M 159.5,288.5 C 159.5,289.833 160.167,290.5 161.5,290.5C 161.5,290.833 161.5,291.167 161.5,291.5C 160.5,291.5 159.5,291.5 158.5,291.5C 158.263,290.209 158.596,289.209 159.5,288.5 Z"/></g>
</svg>
