<?xml version="1.0" encoding="UTF-8"?>
<!DOCTYPE svg PUBLIC "-//W3C//DTD SVG 1.1//EN" "http://www.w3.org/Graphics/SVG/1.1/DTD/svg11.dtd">
<svg xmlns="http://www.w3.org/2000/svg" version="1.1" width="1000px" height="292px" style="shape-rendering:geometricPrecision; text-rendering:geometricPrecision; image-rendering:optimizeQuality; fill-rule:evenodd; clip-rule:evenodd" xmlns:xlink="http://www.w3.org/1999/xlink">
<g><path style="opacity:0.942" fill="#19446e" d="M 833.5,-0.5 C 834.5,-0.5 835.5,-0.5 836.5,-0.5C 837.609,0.28997 838.942,0.78997 840.5,1C 842.764,4.9619 843.097,9.12857 841.5,13.5C 842.773,16.5424 844.439,19.3757 846.5,22C 844.635,23.3014 842.635,23.6347 840.5,23C 838.968,20.9656 837.635,18.7989 836.5,16.5C 835.675,15.6143 834.675,15.281 833.5,15.5C 833.963,18.4824 834.296,21.4824 834.5,24.5C 832.833,24.5 831.167,24.5 829.5,24.5C 828.336,16.5223 827.336,8.5223 826.5,0.5C 829.059,0.801552 831.393,0.468218 833.5,-0.5 Z M 832.5,4.5 C 836.677,3.84156 838.177,5.50822 837,9.5C 835.915,10.2931 834.748,10.9598 833.5,11.5C 832.526,9.25731 832.192,6.92397 832.5,4.5 Z"/></g>
<g><path style="opacity:0.855" fill="#163d65" d="M 866.5,-0.5 C 867.833,-0.5 869.167,-0.5 870.5,-0.5C 872.802,7.67606 874.469,16.0094 875.5,24.5C 873.833,24.5 872.167,24.5 870.5,24.5C 870.764,19.2503 868.431,17.5837 863.5,19.5C 862.754,20.7362 862.421,22.0695 862.5,23.5C 860.25,23.8186 858.25,23.3186 856.5,22C 860.251,14.666 863.585,7.16602 866.5,-0.5 Z M 867.5,8.5 C 868.788,10.0348 868.788,11.7015 867.5,13.5C 866.566,11.9052 866.566,10.2385 867.5,8.5 Z"/></g>
<g><path style="opacity:0.854" fill="#1c4c77" d="M 801.5,6.5 C 803.833,6.5 806.167,6.5 808.5,6.5C 808.33,7.82207 808.663,8.98873 809.5,10C 799.96,12.2318 798.294,17.0652 804.5,24.5C 807.656,25.8712 810.656,25.5379 813.5,23.5C 815.657,24.9664 815.99,26.7997 814.5,29C 805.669,33.166 799.503,30.666 796,21.5C 794.413,15.082 796.246,10.082 801.5,6.5 Z"/></g>
<g><path style="opacity:0.89" fill="#13385e" d="M 895.5,5.5 C 900.295,6.20525 904.628,7.87192 908.5,10.5C 906.439,14.0303 903.773,14.3637 900.5,11.5C 898.717,12.3482 898.217,13.6815 899,15.5C 900.333,16.1667 901.667,16.8333 903,17.5C 903.667,18.5 903.667,19.5 903,20.5C 900.867,21.4177 898.7,21.5844 896.5,21C 895.557,24.1879 894.057,27.0213 892,29.5C 890.379,29.2753 889.212,28.442 888.5,27C 890.94,19.8466 893.274,12.6799 895.5,5.5 Z"/></g>
<g><path style="opacity:0.907" fill="#103156" d="M 923.5,17.5 C 928.639,19.569 933.306,22.4023 937.5,26C 937.07,27.4341 936.236,28.6008 935,29.5C 933.308,27.7554 931.475,27.4221 929.5,28.5C 926.57,33.3696 923.404,38.0363 920,42.5C 917.456,42.1786 916.456,40.8453 917,38.5C 920.042,33.5812 923.209,28.7478 926.5,24C 921.717,23.1382 920.717,20.9716 923.5,17.5 Z"/></g>
<g><path style="opacity:0.916" fill="#1f517e" d="M 774.5,19.5 C 776.564,19.7619 777.897,20.9286 778.5,23C 775.98,24.7632 773.647,26.7632 771.5,29C 773.5,32.3333 775.5,32.3333 777.5,29C 779.845,28.4562 781.179,29.4562 781.5,32C 780.142,33.6887 778.475,35.022 776.5,36C 777.304,37.7713 778.471,39.2713 780,40.5C 782.333,38.8333 784.667,37.1667 787,35.5C 788.236,36.3992 789.07,37.5659 789.5,39C 785.967,42.1936 782.134,45.0269 778,47.5C 773.304,40.9699 768.804,34.3032 764.5,27.5C 767.903,24.8141 771.236,22.1474 774.5,19.5 Z"/></g>
<g><path style="opacity:0.829" fill="#0e2f53" d="M 951.5,37.5 C 955.57,40.0604 959.236,43.2271 962.5,47C 961.333,48.1667 960.167,49.3333 959,50.5C 956.984,48.316 954.817,46.316 952.5,44.5C 951.354,45.1449 950.354,45.9783 949.5,47C 951.167,48.6667 952.833,50.3333 954.5,52C 953.333,53.1667 952.167,54.3333 951,55.5C 948.311,50.547 945.478,50.3803 942.5,55C 944.684,57.0165 946.684,59.1831 948.5,61.5C 947.833,62.8333 946.833,63.8333 945.5,64.5C 941.833,61.5 938.5,58.1667 935.5,54.5C 940.855,48.813 946.188,43.1463 951.5,37.5 Z"/></g>
<g><path style="opacity:0.862" fill="#225686" d="M 746.5,42.5 C 753.846,46.1748 760.512,50.8415 766.5,56.5C 765.833,57.8333 764.833,58.8333 763.5,59.5C 760.328,57.7481 757.328,55.7481 754.5,53.5C 754.167,53.8333 753.833,54.1667 753.5,54.5C 754.601,56.6416 755.601,58.8083 756.5,61C 753.458,60.8192 750.458,60.4859 747.5,60C 750.286,63.074 752.952,66.2407 755.5,69.5C 754.788,71.0459 753.622,72.0459 752,72.5C 746.1,67.2698 740.934,61.4365 736.5,55C 736.93,53.5659 737.764,52.3992 739,51.5C 742.125,52.7687 745.292,53.602 748.5,54C 746.903,51.4728 745.57,48.8061 744.5,46C 744.978,44.6974 745.645,43.5307 746.5,42.5 Z"/></g>
<g><path style="opacity:0.864" fill="#0f2f52" d="M 973.5,62.5 C 977.771,65.7076 979.937,70.041 980,75.5C 979.535,76.9308 978.701,78.0975 977.5,79C 974.556,79.9704 971.556,80.8038 968.5,81.5C 966.914,84.3405 965.08,87.0072 963,89.5C 961.779,88.2259 960.946,86.7259 960.5,85C 961.755,82.0777 963.422,79.411 965.5,77C 964.975,76.3076 964.308,75.8076 963.5,75.5C 961.5,76.8333 959.5,78.1667 957.5,79.5C 955.054,78.573 954.221,76.9063 955,74.5C 961.317,70.6005 967.483,66.6005 973.5,62.5 Z M 972.5,69.5 C 975.295,71.1586 975.628,72.9919 973.5,75C 972.167,75.6667 970.833,75.6667 969.5,75C 968.549,74.2825 968.383,73.4491 969,72.5C 970.145,71.3636 971.312,70.3636 972.5,69.5 Z"/></g>
<g><path style="opacity:0.857" fill="#255a8c" d="M 722.5,73.5 C 730.21,76.5224 737.543,80.3557 744.5,85C 743.845,86.4866 742.845,87.6533 741.5,88.5C 734.179,85.1746 727.179,81.3412 720.5,77C 721.305,75.8873 721.972,74.7206 722.5,73.5 Z"/></g>
<g><path style="opacity:0.946" fill="#1c4c79" d="M 805.5,76.5 C 806.568,77.4345 807.901,77.7678 809.5,77.5C 809.5,86.8333 809.5,96.1667 809.5,105.5C 805.167,105.5 800.833,105.5 796.5,105.5C 796.5,137.5 796.5,169.5 796.5,201.5C 814.5,201.5 832.5,201.5 850.5,201.5C 851.209,202.404 852.209,202.737 853.5,202.5C 853.5,206.167 853.5,209.833 853.5,213.5C 852.209,213.263 851.209,213.596 850.5,214.5C 827.833,214.5 805.167,214.5 782.5,214.5C 782.5,168.5 782.5,122.5 782.5,76.5C 790.167,76.5 797.833,76.5 805.5,76.5 Z"/></g>
<g><path style="opacity:0.967" fill="#19456f" d="M 805.5,76.5 C 811.167,76.5 816.833,76.5 822.5,76.5C 822.334,80.5138 822.501,84.5138 823,88.5C 824.446,92.6515 826.78,93.3181 830,90.5C 830.499,85.8452 830.666,81.1785 830.5,76.5C 837.167,76.5 843.833,76.5 850.5,76.5C 851.209,77.404 852.209,77.7373 853.5,77.5C 853.5,86.8333 853.5,96.1667 853.5,105.5C 838.833,105.5 824.167,105.5 809.5,105.5C 809.5,96.1667 809.5,86.8333 809.5,77.5C 807.901,77.7678 806.568,77.4345 805.5,76.5 Z"/></g>
<g><path style="opacity:0.962" fill="#143b63" d="M 850.5,76.5 C 858.167,76.5 865.833,76.5 873.5,76.5C 873.334,81.1785 873.501,85.8452 874,90.5C 876,93.1667 878,93.1667 880,90.5C 880.499,85.8452 880.666,81.1785 880.5,76.5C 886.5,76.5 892.5,76.5 898.5,76.5C 899.568,77.4345 900.901,77.7678 902.5,77.5C 902.5,86.8333 902.5,96.1667 902.5,105.5C 886.167,105.5 869.833,105.5 853.5,105.5C 853.5,96.1667 853.5,86.8333 853.5,77.5C 852.209,77.7373 851.209,77.404 850.5,76.5 Z"/></g>
<g><path style="opacity:0.954" fill="#11365c" d="M 898.5,76.5 C 905.833,76.5 913.167,76.5 920.5,76.5C 920.5,122.5 920.5,168.5 920.5,214.5C 897.167,214.5 873.833,214.5 850.5,214.5C 851.209,213.596 852.209,213.263 853.5,213.5C 853.5,209.833 853.5,206.167 853.5,202.5C 852.209,202.737 851.209,202.404 850.5,201.5C 869.5,201.5 888.5,201.5 907.5,201.5C 907.5,169.5 907.5,137.5 907.5,105.5C 905.833,105.5 904.167,105.5 902.5,105.5C 902.5,96.1667 902.5,86.8333 902.5,77.5C 900.901,77.7678 899.568,77.4345 898.5,76.5 Z"/></g>
<g><path style="opacity:0.847" fill="#0f2f54" d="M 983.5,94.5 C 992.464,94.1406 996.131,98.474 994.5,107.5C 993.07,107.421 991.736,107.754 990.5,108.5C 989.686,106.234 989.186,103.9 989,101.5C 988.333,100.833 987.667,100.167 987,99.5C 985.143,102.937 983.809,106.604 983,110.5C 977.865,114.957 973.532,114.29 970,108.5C 968.724,105.634 968.557,102.8 969.5,100C 971.134,99.5065 972.801,99.3398 974.5,99.5C 973.916,102.983 974.749,105.983 977,108.5C 977.667,107.833 978.333,107.167 979,106.5C 979.042,101.866 980.542,97.8661 983.5,94.5 Z"/></g>
<g><path style="opacity:0.836" fill="#255c8f" d="M 712.5,93.5 C 714.117,94.038 715.784,94.3713 717.5,94.5C 716.769,96.5988 716.769,98.5988 717.5,100.5C 723.055,102.407 728.555,104.407 734,106.5C 734.122,108.169 733.788,109.835 733,111.5C 727.157,109.608 721.324,107.608 715.5,105.5C 714.066,106.936 712.9,108.602 712,110.5C 710.989,109.663 709.822,109.33 708.5,109.5C 710.037,104.222 711.37,98.8884 712.5,93.5 Z"/></g>
<g><path style="opacity:0.946" fill="#377e7e" d="M 246.5,104.5 C 253.7,104.505 260.7,105.671 267.5,108C 267.93,112.734 267.93,117.567 267.5,122.5C 245.351,114.565 233.351,122.232 231.5,145.5C 233.351,168.768 245.351,176.435 267.5,168.5C 267.93,173.433 267.93,178.266 267.5,183C 235.34,191.363 218.006,178.863 215.5,145.5C 215.538,123.657 225.872,109.99 246.5,104.5 Z"/></g>
<g><path style="opacity:0.948" fill="#367e7e" d="M 632.5,104.5 C 640.461,104.565 648.128,106.065 655.5,109C 656.545,114.106 656.545,119.273 655.5,124.5C 649.193,122.121 642.693,120.454 636,119.5C 625.61,119.857 623.11,124.357 628.5,133C 634.675,136.588 641.009,139.922 647.5,143C 660.047,151.626 662.88,162.793 656,176.5C 649.699,183.218 641.866,186.551 632.5,186.5C 624.247,186.517 616.58,184.517 609.5,180.5C 610.138,175.431 611.138,170.431 612.5,165.5C 621.279,170.867 630.612,172.367 640.5,170C 645.69,164.475 645.023,159.475 638.5,155C 629.591,151.3 621.424,146.467 614,140.5C 608.039,130.983 608.372,121.65 615,112.5C 620.115,108.022 625.949,105.355 632.5,104.5 Z"/></g>
<g><path style="opacity:0.918" fill="#367e7e" d="M 1.5,106.5 C 18.5,106.5 35.5,106.5 52.5,106.5C 52.5,110.833 52.5,115.167 52.5,119.5C 46.5,119.5 40.5,119.5 34.5,119.5C 34.5,141.167 34.5,162.833 34.5,184.5C 29.5,184.5 24.5,184.5 19.5,184.5C 19.5,162.833 19.5,141.167 19.5,119.5C 13.5,119.5 7.5,119.5 1.5,119.5C 1.5,115.167 1.5,110.833 1.5,106.5 Z"/></g>
<g><path style="opacity:0.954" fill="#377f7e" d="M 59.5,106.5 C 64.1667,106.5 68.8333,106.5 73.5,106.5C 73.5,132.5 73.5,158.5 73.5,184.5C 68.8333,184.5 64.1667,184.5 59.5,184.5C 59.5,158.5 59.5,132.5 59.5,106.5 Z"/></g>
<g><path style="opacity:0.946" fill="#367e7e" d="M 92.5,106.5 C 96.7675,106.203 100.934,106.536 105,107.5C 109.861,117.749 114.527,128.083 119,138.5C 124.256,128.32 129.256,117.986 134,107.5C 138.066,106.536 142.233,106.203 146.5,106.5C 149.664,132.481 152.664,158.481 155.5,184.5C 150.5,184.5 145.5,184.5 140.5,184.5C 139.404,168.735 137.571,153.068 135,137.5C 130.194,148.446 124.861,159.112 119,169.5C 114.361,158.888 109.194,148.554 103.5,138.5C 101.412,153.128 99.5783,167.794 98,182.5C 95.6166,183.766 92.95,184.432 90,184.5C 87.5,184.333 85,184.167 82.5,184C 86.1976,158.254 89.5309,132.421 92.5,106.5 Z"/></g>
<g><path style="opacity:0.952" fill="#367e7e" d="M 166.5,106.5 C 181.167,106.5 195.833,106.5 210.5,106.5C 210.5,110.833 210.5,115.167 210.5,119.5C 200.5,119.5 190.5,119.5 180.5,119.5C 180.5,125.167 180.5,130.833 180.5,136.5C 188.167,136.5 195.833,136.5 203.5,136.5C 203.5,141.167 203.5,145.833 203.5,150.5C 195.833,150.5 188.167,150.5 180.5,150.5C 180.5,157.5 180.5,164.5 180.5,171.5C 190.833,171.5 201.167,171.5 211.5,171.5C 211.5,175.833 211.5,180.167 211.5,184.5C 196.5,184.5 181.5,184.5 166.5,184.5C 166.5,158.5 166.5,132.5 166.5,106.5 Z"/></g>
<g><path style="opacity:0.946" fill="#367e7e" d="M 277.5,106.5 C 287.506,106.334 297.506,106.5 307.5,107C 317.889,108.389 324.056,114.223 326,124.5C 328.34,136.022 324.84,145.189 315.5,152C 320.205,161.91 325.039,171.744 330,181.5C 337.81,156.571 345.31,131.571 352.5,106.5C 357.648,105.926 362.482,106.593 367,108.5C 374.816,133.768 382.316,159.101 389.5,184.5C 384.786,184.827 380.12,184.493 375.5,183.5C 373.365,177.956 371.698,172.289 370.5,166.5C 363.167,166.5 355.833,166.5 348.5,166.5C 347.167,172.5 345.833,178.5 344.5,184.5C 334.167,184.5 323.833,184.5 313.5,184.5C 309.962,175.085 306.129,165.751 302,156.5C 298.606,155.544 295.106,155.211 291.5,155.5C 291.5,165.167 291.5,174.833 291.5,184.5C 286.833,184.5 282.167,184.5 277.5,184.5C 277.5,158.5 277.5,132.5 277.5,106.5 Z M 291.5,119.5 C 297.434,118.889 303.1,119.722 308.5,122C 314.787,138.197 309.12,145.364 291.5,143.5C 291.5,135.5 291.5,127.5 291.5,119.5 Z M 359.5,130.5 C 361.74,137.6 364.073,144.767 366.5,152C 362.179,152.499 357.846,152.666 353.5,152.5C 355.192,145.063 357.192,137.73 359.5,130.5 Z"/></g>
<g><path style="opacity:0.958" fill="#367e7e" d="M 395.5,106.5 C 409.833,106.5 424.167,106.5 438.5,106.5C 438.5,110.833 438.5,115.167 438.5,119.5C 429.167,119.5 419.833,119.5 410.5,119.5C 410.5,125.167 410.5,130.833 410.5,136.5C 417.5,136.5 424.5,136.5 431.5,136.5C 431.5,141.167 431.5,145.833 431.5,150.5C 424.5,150.5 417.5,150.5 410.5,150.5C 410.5,161.833 410.5,173.167 410.5,184.5C 405.5,184.5 400.5,184.5 395.5,184.5C 395.5,158.5 395.5,132.5 395.5,106.5 Z"/></g>
<g><path style="opacity:0.948" fill="#367e7e" d="M 439.5,106.5 C 456.833,106.5 474.167,106.5 491.5,106.5C 491.5,110.833 491.5,115.167 491.5,119.5C 485.167,119.5 478.833,119.5 472.5,119.5C 472.5,141.167 472.5,162.833 472.5,184.5C 467.833,184.5 463.167,184.5 458.5,184.5C 458.5,162.833 458.5,141.167 458.5,119.5C 452.167,119.5 445.833,119.5 439.5,119.5C 439.5,115.167 439.5,110.833 439.5,106.5 Z"/></g>
<g><path style="opacity:0.952" fill="#367e7e" d="M 498.5,106.5 C 513.167,106.5 527.833,106.5 542.5,106.5C 542.5,110.833 542.5,115.167 542.5,119.5C 532.5,119.5 522.5,119.5 512.5,119.5C 512.5,125.167 512.5,130.833 512.5,136.5C 520.5,136.5 528.5,136.5 536.5,136.5C 536.5,141.167 536.5,145.833 536.5,150.5C 528.5,150.5 520.5,150.5 512.5,150.5C 512.5,157.5 512.5,164.5 512.5,171.5C 522.833,171.5 533.167,171.5 543.5,171.5C 543.5,175.833 543.5,180.167 543.5,184.5C 528.5,184.5 513.5,184.5 498.5,184.5C 498.5,158.5 498.5,132.5 498.5,106.5 Z"/></g>
<g><path style="opacity:0.955" fill="#377e7e" d="M 552.5,106.5 C 564.229,106.088 575.896,106.588 587.5,108C 597.766,111.8 602.766,119.3 602.5,130.5C 602.64,139.723 598.973,146.89 591.5,152C 596.227,162.787 601.227,173.454 606.5,184C 600.804,184.83 595.137,184.663 589.5,183.5C 585.5,174.5 581.5,165.5 577.5,156.5C 574.232,155.513 570.898,155.18 567.5,155.5C 567.5,165.167 567.5,174.833 567.5,184.5C 562.5,184.5 557.5,184.5 552.5,184.5C 552.5,158.5 552.5,132.5 552.5,106.5 Z M 567.5,119.5 C 584.067,117.218 589.901,123.885 585,139.5C 579.735,142.953 573.901,144.286 567.5,143.5C 567.5,135.5 567.5,127.5 567.5,119.5 Z"/></g>
<g><path style="opacity:0.902" fill="#17416b" d="M 844.5,116.5 C 849.5,116.5 854.5,116.5 859.5,116.5C 859.5,121.833 859.5,127.167 859.5,132.5C 854.5,132.5 849.5,132.5 844.5,132.5C 844.5,127.167 844.5,121.833 844.5,116.5 Z"/></g>
<g><path style="opacity:0.953" fill="#13395f" d="M 886.5,116.5 C 891.5,116.5 896.5,116.5 901.5,116.5C 901.5,121.833 901.5,127.167 901.5,132.5C 896.5,132.5 891.5,132.5 886.5,132.5C 886.5,127.167 886.5,121.833 886.5,116.5 Z"/></g>
<g><path style="opacity:1" fill="#194570" d="M 823.5,116.5 C 828.5,116.5 833.5,116.5 838.5,116.5C 838.5,121.833 838.5,127.167 838.5,132.5C 833.5,132.5 828.5,132.5 823.5,132.5C 823.5,127.167 823.5,121.833 823.5,116.5 Z"/></g>
<g><path style="opacity:0.953" fill="#153d65" d="M 865.5,116.5 C 870.5,116.5 875.5,116.5 880.5,116.5C 880.5,121.833 880.5,127.167 880.5,132.5C 875.5,132.5 870.5,132.5 865.5,132.5C 865.5,127.167 865.5,121.833 865.5,116.5 Z"/></g>
<g><path style="opacity:0.946" fill="#1b4a75" d="M 802.5,137.5 C 807.5,137.5 812.5,137.5 817.5,137.5C 817.5,142.833 817.5,148.167 817.5,153.5C 812.5,153.5 807.5,153.5 802.5,153.5C 802.5,148.167 802.5,142.833 802.5,137.5 Z"/></g>
<g><path style="opacity:0.97" fill="#194570" d="M 823.5,137.5 C 828.5,137.5 833.5,137.5 838.5,137.5C 838.5,142.833 838.5,148.167 838.5,153.5C 833.5,153.5 828.5,153.5 823.5,153.5C 823.5,148.167 823.5,142.833 823.5,137.5 Z"/></g>
<g><path style="opacity:0.908" fill="#17416a" d="M 844.5,137.5 C 849.5,137.5 854.5,137.5 859.5,137.5C 859.5,142.833 859.5,148.167 859.5,153.5C 854.5,153.5 849.5,153.5 844.5,153.5C 844.5,148.167 844.5,142.833 844.5,137.5 Z"/></g>
<g><path style="opacity:0.914" fill="#153d65" d="M 865.5,137.5 C 870.5,137.5 875.5,137.5 880.5,137.5C 880.5,142.833 880.5,148.167 880.5,153.5C 875.5,153.5 870.5,153.5 865.5,153.5C 865.5,148.167 865.5,142.833 865.5,137.5 Z"/></g>
<g><path style="opacity:0.977" fill="#13395f" d="M 886.5,137.5 C 891.5,137.5 896.5,137.5 901.5,137.5C 901.5,142.833 901.5,148.167 901.5,153.5C 896.5,153.5 891.5,153.5 886.5,153.5C 886.5,148.167 886.5,142.833 886.5,137.5 Z"/></g>
<g><path style="opacity:0.926" fill="#0f2f53" d="M 983.5,138.5 C 992.53,138.359 996.363,142.692 995,151.5C 992.232,157.172 987.732,159.006 981.5,157C 977.057,153.938 975.557,149.771 977,144.5C 978.494,141.686 980.66,139.686 983.5,138.5 Z"/></g>
<g><path style="opacity:0.94" fill="#255e8f" d="M 716.5,138.5 C 727.102,139.577 730.269,144.91 726,154.5C 721.863,157.829 717.363,158.329 712.5,156C 706.98,148.583 708.313,142.749 716.5,138.5 Z"/></g>
<g><path style="opacity:0.95" fill="#1b4a75" d="M 802.5,157.5 C 807.5,157.5 812.5,157.5 817.5,157.5C 817.5,162.833 817.5,168.167 817.5,173.5C 812.5,173.5 807.5,173.5 802.5,173.5C 802.5,168.167 802.5,162.833 802.5,157.5 Z"/></g>
<g><path style="opacity:1" fill="#194570" d="M 823.5,157.5 C 828.5,157.5 833.5,157.5 838.5,157.5C 838.5,162.833 838.5,168.167 838.5,173.5C 833.5,173.5 828.5,173.5 823.5,173.5C 823.5,168.167 823.5,162.833 823.5,157.5 Z"/></g>
<g><path style="opacity:0.958" fill="#17416b" d="M 844.5,157.5 C 849.5,157.5 854.5,157.5 859.5,157.5C 859.5,162.833 859.5,168.167 859.5,173.5C 854.5,173.5 849.5,173.5 844.5,173.5C 844.5,168.167 844.5,162.833 844.5,157.5 Z"/></g>
<g><path style="opacity:0.98" fill="#153d64" d="M 865.5,157.5 C 870.5,157.5 875.5,157.5 880.5,157.5C 880.5,162.833 880.5,168.167 880.5,173.5C 875.5,173.5 870.5,173.5 865.5,173.5C 865.5,168.167 865.5,162.833 865.5,157.5 Z"/></g>
<g><path style="opacity:0.98" fill="#13395f" d="M 886.5,157.5 C 891.5,157.5 896.5,157.5 901.5,157.5C 901.5,162.833 901.5,168.167 901.5,173.5C 896.5,173.5 891.5,173.5 886.5,173.5C 886.5,168.167 886.5,162.833 886.5,157.5 Z"/></g>
<g><path style="opacity:0.863" fill="#245a8d" d="M 734.5,178.5 C 735.833,178.5 737.167,178.5 738.5,178.5C 740.039,183.784 741.373,189.118 742.5,194.5C 740.833,194.5 739.167,194.5 737.5,194.5C 737.853,192.365 737.02,191.032 735,190.5C 729.62,192.012 724.287,193.678 719,195.5C 716.843,194.615 716.01,192.948 716.5,190.5C 722.5,188.833 728.5,187.167 734.5,185.5C 733.933,183.031 733.933,180.698 734.5,178.5 Z"/></g>
<g><path style="opacity:0.91" fill="#1b4a75" d="M 802.5,178.5 C 807.5,178.5 812.5,178.5 817.5,178.5C 817.5,183.833 817.5,189.167 817.5,194.5C 812.5,194.5 807.5,194.5 802.5,194.5C 802.5,189.167 802.5,183.833 802.5,178.5 Z"/></g>
<g><path style="opacity:0.896" fill="#194570" d="M 823.5,178.5 C 828.5,178.5 833.5,178.5 838.5,178.5C 838.5,183.833 838.5,189.167 838.5,194.5C 833.5,194.5 828.5,194.5 823.5,194.5C 823.5,189.167 823.5,183.833 823.5,178.5 Z"/></g>
<g><path style="opacity:0.92" fill="#17416b" d="M 844.5,178.5 C 849.5,178.5 854.5,178.5 859.5,178.5C 859.5,183.833 859.5,189.167 859.5,194.5C 854.5,194.5 849.5,194.5 844.5,194.5C 844.5,189.167 844.5,183.833 844.5,178.5 Z"/></g>
<g><path style="opacity:0.848" fill="#0f2f53" d="M 966.5,180.5 C 968.714,180.291 970.381,181.124 971.5,183C 970.277,184.72 969.277,186.553 968.5,188.5C 968.556,189.737 969.056,190.737 970,191.5C 973.677,186.433 978.51,184.266 984.5,185C 989.419,190.135 989.419,195.468 984.5,201C 982.165,201.507 980.165,200.84 978.5,199C 982.234,196.422 983.067,193.256 981,189.5C 978.167,191.667 975.333,193.833 972.5,196C 966.753,197.266 963.419,194.933 962.5,189C 963.181,185.807 964.514,182.974 966.5,180.5 Z"/></g>
<g><path style="opacity:0.86" fill="#0f2f53" d="M 955.5,207.5 C 961.482,206.489 965.482,208.823 967.5,214.5C 971.051,214.952 974.385,215.952 977.5,217.5C 976.974,219.23 975.974,220.564 974.5,221.5C 962.934,218.218 961.934,220.051 971.5,227C 970.778,229.741 969.112,230.741 966.5,230C 960.752,226.042 954.919,222.209 949,218.5C 949.655,213.996 951.822,210.329 955.5,207.5 Z M 956.5,212.5 C 961.276,213.023 962.443,215.356 960,219.5C 958.846,218.257 957.512,217.257 956,216.5C 955.805,215.181 955.972,213.847 956.5,212.5 Z"/></g>
<g><path style="opacity:0.857" fill="#235a8a" d="M 746.5,204.5 C 749.361,205.237 750.361,206.904 749.5,209.5C 742.833,213.167 736.167,216.833 729.5,220.5C 727.341,219.215 726.674,217.548 727.5,215.5C 734.06,212.059 740.393,208.392 746.5,204.5 Z"/></g>
<g><path style="opacity:0.877" fill="#225586" d="M 757.5,221.5 C 759.948,221.085 761.281,222.085 761.5,224.5C 760.641,227.051 759.641,229.551 758.5,232C 758.833,232.5 759.167,233 759.5,233.5C 762.167,232.5 764.833,231.5 767.5,230.5C 768.845,231.347 769.845,232.513 770.5,234C 765,240.167 759.5,246.333 754,252.5C 752.647,251.315 751.48,249.981 750.5,248.5C 752.833,245.833 755.167,243.167 757.5,240.5C 754.901,239.969 752.235,239.802 749.5,240C 750.817,237.562 751.651,235.062 752,232.5C 748.816,234.758 745.483,236.758 742,238.5C 740.726,237.465 739.56,236.298 738.5,235C 745.014,230.637 751.347,226.137 757.5,221.5 Z"/></g>
<g><path style="opacity:0.855" fill="#0f2f53" d="M 939.5,227.5 C 941.384,227.712 942.717,228.712 943.5,230.5C 941.684,232.817 939.684,234.984 937.5,237C 940.114,240.232 942.448,239.899 944.5,236C 946.603,235.749 947.937,236.749 948.5,239C 947.708,240.96 946.375,242.46 944.5,243.5C 945.48,244.981 946.647,246.315 948,247.5C 950.016,245.316 952.183,243.316 954.5,241.5C 956.046,242.212 957.046,243.378 957.5,245C 954.383,248.281 951.049,251.448 947.5,254.5C 941.5,249.167 935.833,243.5 930.5,237.5C 933.522,234.147 936.522,230.813 939.5,227.5 Z"/></g>
<g><path style="opacity:0.861" fill="#113357" d="M 920.5,244.5 C 922.022,245.191 923.022,246.358 923.5,248C 922.201,249.326 920.868,250.66 919.5,252C 923.032,257.369 926.365,262.869 929.5,268.5C 928.086,269.624 926.586,270.624 925,271.5C 921.582,265.663 917.916,259.996 914,254.5C 911.011,258.7 908.844,258.367 907.5,253.5C 911.725,250.231 916.059,247.231 920.5,244.5 Z"/></g>
<g><path style="opacity:0.927" fill="#1e517e" d="M 781.5,243.5 C 785.754,245.749 789.754,248.415 793.5,251.5C 792.917,253.002 792.084,254.335 791,255.5C 788.667,253.833 786.333,252.167 784,250.5C 780.701,253.631 781.367,255.964 786,257.5C 786.309,259.391 785.475,260.725 783.5,261.5C 781.668,260.752 780.001,259.752 778.5,258.5C 776.569,259.694 775.736,261.361 776,263.5C 778.333,265.006 780.5,266.673 782.5,268.5C 781.833,269.833 780.833,270.833 779.5,271.5C 775.264,269.555 771.597,266.888 768.5,263.5C 772.844,256.805 777.177,250.138 781.5,243.5 Z"/></g>
<g><path style="opacity:0.864" fill="#1c4a75" d="M 808.5,258.5 C 812.643,258.652 815.976,260.319 818.5,263.5C 817.917,265.002 817.084,266.335 816,267.5C 812.254,263.607 808.588,263.607 805,267.5C 801.363,274.872 803.53,278.872 811.5,279.5C 811.8,282.244 810.633,283.911 808,284.5C 801.601,283.601 798.101,279.934 797.5,273.5C 797.847,265.849 801.514,260.849 808.5,258.5 Z"/></g>
<g><path style="opacity:0.897" fill="#13385e" d="M 896.5,257.5 C 898.701,257.858 900.035,259.192 900.5,261.5C 897.721,262.646 895.054,263.979 892.5,265.5C 893.628,268.692 895.628,269.358 898.5,267.5C 900.167,267.833 901.167,268.833 901.5,270.5C 899.678,272.01 897.678,273.343 895.5,274.5C 896.5,277.167 897.5,279.833 898.5,282.5C 897.345,283.95 895.845,284.95 894,285.5C 891.162,277.65 888.328,269.817 885.5,262C 889.468,260.962 893.135,259.462 896.5,257.5 Z"/></g>
<g><path style="opacity:0.94" fill="#18456e" d="M 843.5,291.5 C 842.5,291.5 841.5,291.5 840.5,291.5C 838.317,288.292 836.317,284.959 834.5,281.5C 832.946,283.933 832.28,286.6 832.5,289.5C 830.833,289.5 829.167,289.5 827.5,289.5C 827.775,280.95 829.109,272.617 831.5,264.5C 845.074,264.784 848.407,270.618 841.5,282C 842.872,285.026 843.538,288.193 843.5,291.5 Z M 834.5,269.5 C 839.022,269.837 840.355,272.003 838.5,276C 837.207,276.49 835.873,276.657 834.5,276.5C 834.5,274.167 834.5,271.833 834.5,269.5 Z"/></g>
<g><path style="opacity:0.884" fill="#163d65" d="M 861.5,291.5 C 860.5,291.5 859.5,291.5 858.5,291.5C 859.933,283.168 861.433,274.835 863,266.5C 864.699,265.594 866.533,265.261 868.5,265.5C 871.5,273.5 874.5,281.5 877.5,289.5C 873.838,290.363 871.672,289.03 871,285.5C 869,284.167 867,284.167 865,285.5C 864.576,288.025 863.41,290.025 861.5,291.5 Z M 865.5,276.5 C 868.714,277.794 868.881,279.128 866,280.5C 865.51,279.207 865.343,277.873 865.5,276.5 Z"/></g>
</svg>
